<svg width="458" height="740" viewBox="0 0 458 740" fill="none" xmlns="http://www.w3.org/2000/svg">
<rect width="458" height="740" fill="white"/>
<g clip-path="url(#clip0_2539_1071)">
<path d="M229.001 397.591C308.736 397.591 373.374 333.771 373.374 255.045C373.374 176.319 308.736 112.499 229.001 112.499C149.266 112.499 84.6273 176.319 84.6273 255.045C84.6273 333.771 149.266 397.591 229.001 397.591Z" fill="white"/>
<path fill-rule="evenodd" clip-rule="evenodd" d="M228.999 115.276C150.818 115.276 87.4389 177.852 87.4389 255.045C87.4389 332.236 150.818 394.813 228.999 394.813C307.181 394.813 370.56 332.236 370.56 255.045C370.56 177.852 307.181 115.276 228.999 115.276ZM81.8125 255.045C81.8125 174.784 147.71 109.721 228.999 109.721C310.288 109.721 376.186 174.784 376.186 255.045C376.186 335.304 310.288 400.368 228.999 400.368C147.71 400.368 81.8125 335.304 81.8125 255.045Z" fill="#111111"/>
<path d="M181.402 390.313C180.445 406.979 191.811 423.089 203.682 428.422C220.449 435.921 242.279 424.2 250.381 397.202C232.714 400.313 204.808 399.257 181.458 390.258" fill="#F49E15"/>
<path fill-rule="evenodd" clip-rule="evenodd" d="M177.376 386.427C178.903 384.842 181.306 384.237 183.499 385.082C205.782 393.67 232.628 394.683 249.388 391.732C251.309 391.393 253.27 392.062 254.57 393.498C255.871 394.934 256.325 396.932 255.771 398.779C247.168 427.446 222.565 442.968 201.355 433.481L201.347 433.477C194.188 430.261 187.593 424.035 182.929 416.519C178.237 408.959 175.225 399.657 175.779 389.998C175.859 388.601 176.456 387.354 177.376 386.427ZM187.548 398.222C188.402 402.627 190.152 406.892 192.524 410.714C196.27 416.75 201.292 421.245 206.003 423.362C216.87 428.22 232.972 422.633 241.838 403.877C226.094 405.19 206.037 403.822 187.548 398.222Z" fill="#111111"/>
<path d="M150.737 368.479C169.91 368.479 185.452 353.133 185.452 334.203C185.452 315.274 169.91 299.928 150.737 299.928C131.565 299.928 116.022 315.274 116.022 334.203C116.022 353.133 131.565 368.479 150.737 368.479Z" fill="#F3A89F"/>
<path fill-rule="evenodd" clip-rule="evenodd" d="M121.891 105.273C122.142 102.215 124.856 99.9367 127.954 100.184L127.499 105.721C127.954 100.184 127.952 100.184 127.954 100.184L127.973 100.186L128.002 100.188L128.092 100.196C128.166 100.203 128.266 100.212 128.392 100.225C128.644 100.25 128.998 100.289 129.442 100.344C130.33 100.454 131.584 100.631 133.11 100.904C136.151 101.448 140.328 102.384 144.872 103.959C153.777 107.047 165.036 112.926 171.109 124.092C172.58 126.794 171.552 130.162 168.815 131.614C166.078 133.066 162.666 132.052 161.196 129.348C157.086 121.793 149.018 117.173 141.142 114.442C137.296 113.108 133.719 112.304 131.104 111.836C129.801 111.603 128.751 111.456 128.043 111.368C127.689 111.324 127.421 111.295 127.251 111.278L127.07 111.261L127.045 111.259C123.949 111.009 121.64 108.33 121.891 105.273Z" fill="#111111"/>
<path fill-rule="evenodd" clip-rule="evenodd" d="M165.611 77.0258C168.705 76.7328 171.453 78.9711 171.749 82.0251L175.857 124.3C176.153 127.354 173.886 130.067 170.793 130.36C167.7 130.653 164.952 128.415 164.656 125.361L160.548 83.0861C160.252 80.032 162.518 77.3187 165.611 77.0258Z" fill="#111111"/>
<path d="M176.731 311.483C182.573 311.483 187.309 306.808 187.309 301.04C187.309 295.272 182.573 290.596 176.731 290.596C170.89 290.596 166.154 295.272 166.154 301.04C166.154 306.808 170.89 311.483 176.731 311.483Z" fill="#111111"/>
<path d="M312.21 359.147C331.383 359.147 346.925 343.801 346.925 324.871C346.925 305.942 331.383 290.596 312.21 290.596C293.038 290.596 277.495 305.942 277.495 324.871C277.495 343.801 293.038 359.147 312.21 359.147Z" fill="#F3A89F"/>
<path d="M278.965 310.373C284.186 310.373 288.418 306.195 288.418 301.041C288.418 295.886 284.186 291.708 278.965 291.708C273.745 291.708 269.513 295.886 269.513 301.041C269.513 306.195 273.745 310.373 278.965 310.373Z" fill="#111111"/>
<path fill-rule="evenodd" clip-rule="evenodd" d="M229 118.052C152.372 118.052 90.2528 179.385 90.2528 255.043C90.2528 330.701 152.372 392.033 229 392.033C305.628 392.033 367.747 330.701 367.747 255.043C367.747 179.385 305.628 118.052 229 118.052ZM79 255.043C79 173.249 146.157 106.941 229 106.941C311.843 106.941 379 173.249 379 255.043C379 336.837 311.843 403.144 229 403.144C146.157 403.144 79 336.837 79 255.043Z" fill="#111111"/>
</g>
<defs>
<clipPath id="clip0_2539_1071">
<rect width="300" height="360" fill="white" transform="translate(79 77)"/>
</clipPath>
</defs>
</svg>
