<svg width="458" height="740" viewBox="0 0 458 740" fill="none" xmlns="http://www.w3.org/2000/svg">
<rect width="458" height="740" fill="white"/>
<path d="M123.5 82.7774C123.552 82.7715 223.999 71.2873 224 106.777V206.416C223.537 202.747 220.229 194.08 201 184.277C175.509 171.282 113.044 179.771 113 179.777V169.35C112.659 169.405 112.233 169.473 111.735 169.544C110.421 169.732 108.59 169.958 106.515 170.109C102.678 170.389 97.3325 170.472 92.9076 169.172L92.4818 169.041C87.9765 167.605 83.4806 164.317 80.4164 161.788C78.8109 160.463 77.4474 159.219 76.4847 158.305C76.0022 157.846 75.616 157.467 75.3461 157.198C75.2112 157.064 75.1047 156.956 75.0297 156.88C74.9924 156.842 74.9624 156.811 74.9408 156.789C74.9302 156.778 74.9211 156.769 74.9144 156.762C74.9113 156.759 74.9079 156.755 74.9056 156.753C74.9046 156.752 74.9036 156.75 74.9027 156.749L74.9008 156.748C74.9036 156.744 75.0126 156.638 78.5004 153.277L74.8998 156.747C72.9839 154.759 73.0424 151.593 75.0306 149.677C77.0183 147.761 80.1827 147.82 82.099 149.806L82.1088 149.816C82.1194 149.827 82.1387 149.846 82.1644 149.872C82.2162 149.925 82.2976 150.008 82.4066 150.117C82.6251 150.335 82.9529 150.657 83.3705 151.054C84.2089 151.85 85.3956 152.932 86.7806 154.075C89.6982 156.483 92.9525 158.696 95.5189 159.514L96.015 159.658C98.5748 160.34 102.253 160.393 105.788 160.136C107.579 160.005 109.173 159.808 110.317 159.645C110.886 159.563 111.34 159.491 111.644 159.439C111.796 159.414 111.911 159.393 111.984 159.38C112.02 159.373 112.046 159.369 112.061 159.366C112.068 159.365 112.072 159.364 112.075 159.363L112.327 159.323C112.553 159.292 112.778 159.278 113 159.277V142.277H142.5L123.5 82.7774ZM94.0004 87.2774C98.4186 87.2774 102 90.8591 102 95.2774C102 99.6957 98.4187 103.277 94.0004 103.277C89.5821 103.277 86.0004 99.6956 86.0004 95.2774C86.0004 90.8592 89.5822 87.2774 94.0004 87.2774Z" fill="#89BE4D"/>
<path d="M190.5 219.276C190.5 219.276 201.5 217.776 207.5 228.776C213.494 239.765 207.512 268.718 207.5 268.776C207.458 268.712 198.937 255.861 190.5 255.276C140 251.776 33.5001 256.276 30.5001 255.276V251.625C30.3813 251.632 30.2607 251.641 30.1388 251.648C27.863 251.774 24.7868 251.801 22.3937 251.203C21.299 250.929 19.6015 250.405 18.2365 249.97C17.5416 249.749 16.911 249.544 16.4542 249.394C16.2257 249.319 16.0399 249.258 15.9113 249.215C15.8473 249.194 15.7971 249.178 15.7628 249.167C15.7458 249.161 15.7318 249.156 15.7228 249.153C15.7187 249.152 15.7153 249.151 15.713 249.15C15.7119 249.15 15.7107 249.149 15.7101 249.149H15.7091V249.148L15.4708 249.055C14.3156 248.535 13.7197 247.214 14.129 245.986C14.566 244.676 15.9815 243.969 17.2912 244.406H17.2941C17.296 244.406 17.2989 244.408 17.3029 244.41C17.311 244.412 17.3239 244.416 17.34 244.421C17.3724 244.432 17.4206 244.449 17.4826 244.469C17.6071 244.51 17.7878 244.57 18.0109 244.643C18.4581 244.79 19.0751 244.99 19.7531 245.206C21.1345 245.645 22.6875 246.121 23.6066 246.351C25.2133 246.753 27.6374 246.779 29.8615 246.656C30.0795 246.644 30.293 246.629 30.5001 246.615V239.776H44.5001L33.5001 219.276H190.5ZM23.0001 219.277C24.657 219.277 26.0001 220.62 26.0001 222.277C25.9999 223.934 24.6569 225.277 23.0001 225.277C21.3436 225.277 20.0004 223.933 20.0001 222.277C20.0001 220.62 21.3434 219.277 23.0001 219.277Z" fill="#EFC55F"/>
<path d="M267.667 161.402C267.608 161.388 256.651 158.744 250.667 178.568C244.667 198.445 250.667 250.846 250.667 250.846C250.667 250.846 259.21 227.511 267.667 226.452C318.166 220.128 424.663 228.259 427.667 226.452V217.843C427.75 217.852 427.833 217.864 427.917 217.873C430.159 218.098 433.348 218.173 435.946 217.093L436.196 216.986C437.332 216.473 439.06 215.508 440.419 214.726C441.117 214.325 441.751 213.953 442.209 213.681C442.438 213.545 442.625 213.434 442.754 213.357C442.818 213.318 442.869 213.288 442.903 213.267C442.92 213.257 442.934 213.249 442.943 213.244C442.948 213.241 442.951 213.238 442.953 213.237C442.954 213.236 442.955 213.235 442.956 213.235H442.957C442.954 213.23 442.9 213.139 441.932 211.533L442.958 213.234C444.14 212.521 444.52 210.985 443.808 209.802C443.095 208.62 441.559 208.24 440.377 208.953L440.376 208.952V208.953L440.374 208.954C440.372 208.955 440.369 208.956 440.365 208.958C440.357 208.963 440.345 208.971 440.329 208.981C440.297 209 440.249 209.029 440.188 209.066C440.064 209.14 439.883 209.248 439.66 209.379C439.215 209.643 438.6 210.004 437.926 210.392C436.538 211.19 435.016 212.032 434.138 212.429L433.874 212.538C432.507 213.051 430.466 213.103 428.417 212.897C428.159 212.871 427.909 212.841 427.667 212.81V198.444H413.667L424.667 161.402H267.667ZM435.167 162.791C432.94 162.791 431.135 164.596 431.135 166.823C431.135 169.05 432.94 170.856 435.167 170.856C437.394 170.856 439.2 169.05 439.2 166.823C439.2 164.596 437.394 162.791 435.167 162.791Z" fill="#74ABDE"/>
<path d="M188.5 280.778C205.992 276.779 237.472 279.275 237.5 279.278L224.5 321.278H245L244.475 334.396C245.488 334.514 246.64 334.633 247.869 334.722C252.151 335.032 256.967 334.986 260.209 333.905C263.486 332.813 265.192 331.236 266.073 330.077C266.523 329.485 266.78 328.973 266.918 328.639C266.988 328.472 267.027 328.35 267.046 328.286L267.057 328.249C267.056 328.253 267.054 328.259 267.053 328.265C267.053 328.268 267.052 328.272 267.051 328.276C267.051 328.277 267.051 328.28 267.05 328.281L267.049 328.284V328.285C267.321 326.933 268.637 326.056 269.991 326.326C271.344 326.597 272.222 327.914 271.952 329.268L269.5 328.778C271.857 329.249 271.948 329.268 271.952 329.271C271.951 329.271 271.951 329.273 271.951 329.275C271.95 329.277 271.949 329.279 271.949 329.281C271.948 329.286 271.947 329.292 271.946 329.297C271.943 329.308 271.941 329.322 271.938 329.335C271.932 329.362 271.924 329.394 271.915 329.431C271.897 329.505 271.872 329.598 271.839 329.708C271.774 329.928 271.677 330.216 271.536 330.557C271.252 331.239 270.791 332.132 270.053 333.103C268.559 335.069 266.015 337.242 261.791 338.65C257.534 340.069 251.85 340.023 247.507 339.708C246.348 339.624 245.257 339.517 244.275 339.406L244 346.278C244 346.278 196 346.607 187.5 348.278C179.017 349.945 160.572 369.701 160.5 369.778V300.278C160.564 300.207 175.538 283.741 188.5 280.778ZM257 284.278C259.209 284.278 261 286.068 261 288.278C261 290.487 259.21 292.278 257 292.278C254.791 292.278 253 290.487 253 288.278C253.001 286.068 254.791 284.278 257 284.278Z" fill="#DC4E2E"/>
</svg>
